<mxfile host="app.diagrams.net" modified="2024-04-28T05:21:09.542Z" agent="Mozilla/5.0 (Windows NT 10.0; Win64; x64) AppleWebKit/537.36 (KHTML, like Gecko) Chrome/124.0.0.0 Safari/537.36" etag="nm56TKQqo-X0lNbQtlgl" version="24.3.1" type="device">
  <diagram name="Página-1" id="RXc2RLLWSJeJABgzcuFo">
    <mxGraphModel dx="3096" dy="2466" grid="1" gridSize="10" guides="1" tooltips="1" connect="1" arrows="1" fold="1" page="1" pageScale="1" pageWidth="827" pageHeight="1169" math="0" shadow="0">
      <root>
        <mxCell id="0" />
        <mxCell id="1" parent="0" />
        <mxCell id="RIBPLgs2tIToHIS9_J1g-52" value="" style="rounded=0;whiteSpace=wrap;html=1;" parent="1" vertex="1">
          <mxGeometry x="-310" y="-2" width="1550" height="1220" as="geometry" />
        </mxCell>
        <mxCell id="BTqJfUpLhKWyFMrB6gHA-2" value="Controllers" style="swimlane;whiteSpace=wrap;html=1;" parent="1" vertex="1">
          <mxGeometry x="328" y="170" width="170" height="700" as="geometry" />
        </mxCell>
        <mxCell id="BTqJfUpLhKWyFMrB6gHA-15" value="Usuário" style="swimlane;fontStyle=0;childLayout=stackLayout;horizontal=1;startSize=30;horizontalStack=0;resizeParent=1;resizeParentMax=0;resizeLast=0;collapsible=1;marginBottom=0;whiteSpace=wrap;html=1;" parent="BTqJfUpLhKWyFMrB6gHA-2" vertex="1">
          <mxGeometry x="17" y="34" width="140" height="90" as="geometry" />
        </mxCell>
        <mxCell id="BTqJfUpLhKWyFMrB6gHA-17" value="Check Role" style="text;strokeColor=none;fillColor=none;align=left;verticalAlign=middle;spacingLeft=4;spacingRight=4;overflow=hidden;points=[[0,0.5],[1,0.5]];portConstraint=eastwest;rotatable=0;whiteSpace=wrap;html=1;" parent="BTqJfUpLhKWyFMrB6gHA-15" vertex="1">
          <mxGeometry y="30" width="140" height="30" as="geometry" />
        </mxCell>
        <mxCell id="BTqJfUpLhKWyFMrB6gHA-18" value="Validar" style="text;strokeColor=none;fillColor=none;align=left;verticalAlign=middle;spacingLeft=4;spacingRight=4;overflow=hidden;points=[[0,0.5],[1,0.5]];portConstraint=eastwest;rotatable=0;whiteSpace=wrap;html=1;" parent="BTqJfUpLhKWyFMrB6gHA-15" vertex="1">
          <mxGeometry y="60" width="140" height="30" as="geometry" />
        </mxCell>
        <mxCell id="BTqJfUpLhKWyFMrB6gHA-5" value="Models" style="swimlane;whiteSpace=wrap;html=1;startSize=23;" parent="1" vertex="1">
          <mxGeometry x="670" y="170" width="170" height="980" as="geometry" />
        </mxCell>
        <mxCell id="BTqJfUpLhKWyFMrB6gHA-9" value="Formulário Inicial" style="swimlane;fontStyle=0;childLayout=stackLayout;horizontal=1;startSize=30;horizontalStack=0;resizeParent=1;resizeParentMax=0;resizeLast=0;collapsible=1;marginBottom=0;whiteSpace=wrap;html=1;" parent="BTqJfUpLhKWyFMrB6gHA-5" vertex="1">
          <mxGeometry x="12" y="42" width="140" height="170" as="geometry" />
        </mxCell>
        <mxCell id="BTqJfUpLhKWyFMrB6gHA-10" value="Id" style="text;strokeColor=none;fillColor=none;align=left;verticalAlign=middle;spacingLeft=4;spacingRight=4;overflow=hidden;points=[[0,0.5],[1,0.5]];portConstraint=eastwest;rotatable=0;whiteSpace=wrap;html=1;" parent="BTqJfUpLhKWyFMrB6gHA-9" vertex="1">
          <mxGeometry y="30" width="140" height="30" as="geometry" />
        </mxCell>
        <mxCell id="BTqJfUpLhKWyFMrB6gHA-11" value="Nome" style="text;strokeColor=none;fillColor=none;align=left;verticalAlign=middle;spacingLeft=4;spacingRight=4;overflow=hidden;points=[[0,0.5],[1,0.5]];portConstraint=eastwest;rotatable=0;whiteSpace=wrap;html=1;" parent="BTqJfUpLhKWyFMrB6gHA-9" vertex="1">
          <mxGeometry y="60" width="140" height="20" as="geometry" />
        </mxCell>
        <mxCell id="BTqJfUpLhKWyFMrB6gHA-12" value="&lt;div&gt;&lt;br&gt;&lt;/div&gt;&lt;div&gt;&lt;br&gt;&lt;/div&gt;&lt;div&gt;&lt;br&gt;&lt;/div&gt;..." style="text;strokeColor=none;fillColor=none;align=left;verticalAlign=middle;spacingLeft=4;spacingRight=4;overflow=hidden;points=[[0,0.5],[1,0.5]];portConstraint=eastwest;rotatable=0;whiteSpace=wrap;html=1;" parent="BTqJfUpLhKWyFMrB6gHA-9" vertex="1">
          <mxGeometry y="80" width="140" height="90" as="geometry" />
        </mxCell>
        <mxCell id="RIBPLgs2tIToHIS9_J1g-12" value="Servidor Banco de Dados" style="swimlane;whiteSpace=wrap;html=1;" parent="1" vertex="1">
          <mxGeometry x="1045" y="60" width="125" height="250" as="geometry" />
        </mxCell>
        <mxCell id="RIBPLgs2tIToHIS9_J1g-16" value="" style="image;aspect=fixed;html=1;points=[];align=center;fontSize=12;image=img/lib/azure2/databases/Azure_Database_PostgreSQL_Server.svg;" parent="RIBPLgs2tIToHIS9_J1g-12" vertex="1">
          <mxGeometry x="38" y="160" width="48" height="64" as="geometry" />
        </mxCell>
        <mxCell id="RIBPLgs2tIToHIS9_J1g-32" value="Render" style="image;points=[];aspect=fixed;html=1;align=center;shadow=0;dashed=0;image=img/lib/allied_telesis/storage/Datacenter_Server_Half_Rack_ToR.svg;" parent="RIBPLgs2tIToHIS9_J1g-12" vertex="1">
          <mxGeometry x="44" y="48" width="38.2" height="49.63" as="geometry" />
        </mxCell>
        <mxCell id="RIBPLgs2tIToHIS9_J1g-23" value="Usuário" style="sketch=0;outlineConnect=0;fontColor=#232F3E;gradientColor=none;fillColor=#232F3D;strokeColor=none;dashed=0;verticalLabelPosition=bottom;verticalAlign=top;align=center;html=1;fontSize=12;fontStyle=0;aspect=fixed;pointerEvents=1;shape=mxgraph.aws4.user;" parent="1" vertex="1">
          <mxGeometry x="-142.81" y="130" width="65.62" height="65.62" as="geometry" />
        </mxCell>
        <mxCell id="RIBPLgs2tIToHIS9_J1g-27" value="Servidor" style="swimlane;whiteSpace=wrap;html=1;" parent="1" vertex="1">
          <mxGeometry x="40" y="60" width="920" height="1120" as="geometry" />
        </mxCell>
        <mxCell id="RIBPLgs2tIToHIS9_J1g-25" value="Render" style="image;points=[];aspect=fixed;html=1;align=center;shadow=0;dashed=0;image=img/lib/allied_telesis/storage/Datacenter_Server_Half_Rack_ToR.svg;" parent="RIBPLgs2tIToHIS9_J1g-27" vertex="1">
          <mxGeometry x="330.9" y="25.990000000000002" width="38.2" height="49.63" as="geometry" />
        </mxCell>
        <mxCell id="RIBPLgs2tIToHIS9_J1g-24" value="Views" style="swimlane;whiteSpace=wrap;html=1;startSize=23;" parent="RIBPLgs2tIToHIS9_J1g-27" vertex="1">
          <mxGeometry x="40" y="110" width="170" height="850" as="geometry" />
        </mxCell>
        <mxCell id="RIBPLgs2tIToHIS9_J1g-41" value="Formulário Inicial" style="swimlane;fontStyle=0;childLayout=stackLayout;horizontal=1;startSize=30;horizontalStack=0;resizeParent=1;resizeParentMax=0;resizeLast=0;collapsible=1;marginBottom=0;whiteSpace=wrap;html=1;" parent="RIBPLgs2tIToHIS9_J1g-24" vertex="1">
          <mxGeometry x="15" y="38" width="140" height="190" as="geometry" />
        </mxCell>
        <mxCell id="RIBPLgs2tIToHIS9_J1g-42" value="Texto (Perguntas)" style="text;strokeColor=none;fillColor=none;align=left;verticalAlign=middle;spacingLeft=4;spacingRight=4;overflow=hidden;points=[[0,0.5],[1,0.5]];portConstraint=eastwest;rotatable=0;whiteSpace=wrap;html=1;" parent="RIBPLgs2tIToHIS9_J1g-41" vertex="1">
          <mxGeometry y="30" width="140" height="30" as="geometry" />
        </mxCell>
        <mxCell id="RIBPLgs2tIToHIS9_J1g-43" value="Campo para Resposta" style="text;strokeColor=none;fillColor=none;align=left;verticalAlign=middle;spacingLeft=4;spacingRight=4;overflow=hidden;points=[[0,0.5],[1,0.5]];portConstraint=eastwest;rotatable=0;whiteSpace=wrap;html=1;" parent="RIBPLgs2tIToHIS9_J1g-41" vertex="1">
          <mxGeometry y="60" width="140" height="30" as="geometry" />
        </mxCell>
        <mxCell id="cblA4CvJgCcey_ZlcbRY-1" value="Botão (avançar ou voltar pergunta)&amp;nbsp;" style="text;strokeColor=none;fillColor=none;align=left;verticalAlign=middle;spacingLeft=4;spacingRight=4;overflow=hidden;points=[[0,0.5],[1,0.5]];portConstraint=eastwest;rotatable=0;whiteSpace=wrap;html=1;" parent="RIBPLgs2tIToHIS9_J1g-41" vertex="1">
          <mxGeometry y="90" width="140" height="50" as="geometry" />
        </mxCell>
        <mxCell id="cblA4CvJgCcey_ZlcbRY-4" value="Botão (Seleção de perfil)" style="text;strokeColor=none;fillColor=none;align=left;verticalAlign=middle;spacingLeft=4;spacingRight=4;overflow=hidden;points=[[0,0.5],[1,0.5]];portConstraint=eastwest;rotatable=0;whiteSpace=wrap;html=1;" parent="RIBPLgs2tIToHIS9_J1g-41" vertex="1">
          <mxGeometry y="140" width="140" height="30" as="geometry" />
        </mxCell>
        <mxCell id="RIBPLgs2tIToHIS9_J1g-44" value="&lt;font color=&quot;#ffffff&quot;&gt;Form&lt;/font&gt;" style="text;strokeColor=none;fillColor=none;align=left;verticalAlign=middle;spacingLeft=4;spacingRight=4;overflow=hidden;points=[[0,0.5],[1,0.5]];portConstraint=eastwest;rotatable=0;whiteSpace=wrap;html=1;" parent="RIBPLgs2tIToHIS9_J1g-41" vertex="1">
          <mxGeometry y="170" width="140" height="20" as="geometry" />
        </mxCell>
        <mxCell id="cblA4CvJgCcey_ZlcbRY-47" value="Respostas" style="text;strokeColor=none;fillColor=none;align=left;verticalAlign=middle;spacingLeft=4;spacingRight=4;overflow=hidden;points=[[0,0.5],[1,0.5]];portConstraint=eastwest;rotatable=0;whiteSpace=wrap;html=1;" parent="RIBPLgs2tIToHIS9_J1g-27" vertex="1">
          <mxGeometry x="642" y="247" width="140" height="30" as="geometry" />
        </mxCell>
        <mxCell id="cblA4CvJgCcey_ZlcbRY-68" value="Formulário &quot;Sou dono de pet&quot;" style="swimlane;fontStyle=0;childLayout=stackLayout;horizontal=1;startSize=30;horizontalStack=0;resizeParent=1;resizeParentMax=0;resizeLast=0;collapsible=1;marginBottom=0;whiteSpace=wrap;html=1;" parent="RIBPLgs2tIToHIS9_J1g-27" vertex="1">
          <mxGeometry x="644" y="530" width="140" height="170" as="geometry" />
        </mxCell>
        <mxCell id="cblA4CvJgCcey_ZlcbRY-69" value="Id" style="text;strokeColor=none;fillColor=none;align=left;verticalAlign=middle;spacingLeft=4;spacingRight=4;overflow=hidden;points=[[0,0.5],[1,0.5]];portConstraint=eastwest;rotatable=0;whiteSpace=wrap;html=1;" parent="cblA4CvJgCcey_ZlcbRY-68" vertex="1">
          <mxGeometry y="30" width="140" height="30" as="geometry" />
        </mxCell>
        <mxCell id="cblA4CvJgCcey_ZlcbRY-70" value="Nome" style="text;strokeColor=none;fillColor=none;align=left;verticalAlign=middle;spacingLeft=4;spacingRight=4;overflow=hidden;points=[[0,0.5],[1,0.5]];portConstraint=eastwest;rotatable=0;whiteSpace=wrap;html=1;" parent="cblA4CvJgCcey_ZlcbRY-68" vertex="1">
          <mxGeometry y="60" width="140" height="30" as="geometry" />
        </mxCell>
        <mxCell id="cblA4CvJgCcey_ZlcbRY-71" value="&lt;div&gt;&lt;br&gt;&lt;/div&gt;&lt;div&gt;&lt;br&gt;&lt;/div&gt;&lt;div&gt;&lt;br&gt;&lt;/div&gt;..." style="text;strokeColor=none;fillColor=none;align=left;verticalAlign=middle;spacingLeft=4;spacingRight=4;overflow=hidden;points=[[0,0.5],[1,0.5]];portConstraint=eastwest;rotatable=0;whiteSpace=wrap;html=1;" parent="cblA4CvJgCcey_ZlcbRY-68" vertex="1">
          <mxGeometry y="90" width="140" height="80" as="geometry" />
        </mxCell>
        <mxCell id="cblA4CvJgCcey_ZlcbRY-72" value="Respostas" style="text;strokeColor=none;fillColor=none;align=left;verticalAlign=middle;spacingLeft=4;spacingRight=4;overflow=hidden;points=[[0,0.5],[1,0.5]];portConstraint=eastwest;rotatable=0;whiteSpace=wrap;html=1;" parent="RIBPLgs2tIToHIS9_J1g-27" vertex="1">
          <mxGeometry x="641" y="645" width="140" height="30" as="geometry" />
        </mxCell>
        <mxCell id="cblA4CvJgCcey_ZlcbRY-73" value="E-mail" style="text;strokeColor=none;fillColor=none;align=left;verticalAlign=middle;spacingLeft=4;spacingRight=4;overflow=hidden;points=[[0,0.5],[1,0.5]];portConstraint=eastwest;rotatable=0;whiteSpace=wrap;html=1;" parent="RIBPLgs2tIToHIS9_J1g-27" vertex="1">
          <mxGeometry x="642" y="620" width="140" height="30" as="geometry" />
        </mxCell>
        <mxCell id="cblA4CvJgCcey_ZlcbRY-86" value="Formulário &quot;Serei dono de pet&quot;" style="swimlane;fontStyle=0;childLayout=stackLayout;horizontal=1;startSize=30;horizontalStack=0;resizeParent=1;resizeParentMax=0;resizeLast=0;collapsible=1;marginBottom=0;whiteSpace=wrap;html=1;" parent="RIBPLgs2tIToHIS9_J1g-27" vertex="1">
          <mxGeometry x="645" y="720" width="140" height="170" as="geometry" />
        </mxCell>
        <mxCell id="cblA4CvJgCcey_ZlcbRY-87" value="Id" style="text;strokeColor=none;fillColor=none;align=left;verticalAlign=middle;spacingLeft=4;spacingRight=4;overflow=hidden;points=[[0,0.5],[1,0.5]];portConstraint=eastwest;rotatable=0;whiteSpace=wrap;html=1;" parent="cblA4CvJgCcey_ZlcbRY-86" vertex="1">
          <mxGeometry y="30" width="140" height="30" as="geometry" />
        </mxCell>
        <mxCell id="cblA4CvJgCcey_ZlcbRY-88" value="Nome" style="text;strokeColor=none;fillColor=none;align=left;verticalAlign=middle;spacingLeft=4;spacingRight=4;overflow=hidden;points=[[0,0.5],[1,0.5]];portConstraint=eastwest;rotatable=0;whiteSpace=wrap;html=1;" parent="cblA4CvJgCcey_ZlcbRY-86" vertex="1">
          <mxGeometry y="60" width="140" height="30" as="geometry" />
        </mxCell>
        <mxCell id="cblA4CvJgCcey_ZlcbRY-89" value="&lt;div&gt;&lt;br&gt;&lt;/div&gt;&lt;div&gt;&lt;br&gt;&lt;/div&gt;&lt;div&gt;&lt;br&gt;&lt;/div&gt;..." style="text;strokeColor=none;fillColor=none;align=left;verticalAlign=middle;spacingLeft=4;spacingRight=4;overflow=hidden;points=[[0,0.5],[1,0.5]];portConstraint=eastwest;rotatable=0;whiteSpace=wrap;html=1;" parent="cblA4CvJgCcey_ZlcbRY-86" vertex="1">
          <mxGeometry y="90" width="140" height="80" as="geometry" />
        </mxCell>
        <mxCell id="cblA4CvJgCcey_ZlcbRY-90" value="Respostas" style="text;strokeColor=none;fillColor=none;align=left;verticalAlign=middle;spacingLeft=4;spacingRight=4;overflow=hidden;points=[[0,0.5],[1,0.5]];portConstraint=eastwest;rotatable=0;whiteSpace=wrap;html=1;" parent="RIBPLgs2tIToHIS9_J1g-27" vertex="1">
          <mxGeometry x="644" y="835" width="140" height="30" as="geometry" />
        </mxCell>
        <mxCell id="cblA4CvJgCcey_ZlcbRY-91" value="E-mail" style="text;strokeColor=none;fillColor=none;align=left;verticalAlign=middle;spacingLeft=4;spacingRight=4;overflow=hidden;points=[[0,0.5],[1,0.5]];portConstraint=eastwest;rotatable=0;whiteSpace=wrap;html=1;" parent="RIBPLgs2tIToHIS9_J1g-27" vertex="1">
          <mxGeometry x="644" y="810" width="140" height="30" as="geometry" />
        </mxCell>
        <mxCell id="cblA4CvJgCcey_ZlcbRY-98" value="Formulário &quot;Nunca tive e não pretendo ter pets&quot;" style="swimlane;fontStyle=0;childLayout=stackLayout;horizontal=1;startSize=30;horizontalStack=0;resizeParent=1;resizeParentMax=0;resizeLast=0;collapsible=1;marginBottom=0;whiteSpace=wrap;html=1;" parent="RIBPLgs2tIToHIS9_J1g-27" vertex="1">
          <mxGeometry x="644" y="910" width="140" height="170" as="geometry" />
        </mxCell>
        <mxCell id="cblA4CvJgCcey_ZlcbRY-99" value="Id" style="text;strokeColor=none;fillColor=none;align=left;verticalAlign=middle;spacingLeft=4;spacingRight=4;overflow=hidden;points=[[0,0.5],[1,0.5]];portConstraint=eastwest;rotatable=0;whiteSpace=wrap;html=1;" parent="cblA4CvJgCcey_ZlcbRY-98" vertex="1">
          <mxGeometry y="30" width="140" height="30" as="geometry" />
        </mxCell>
        <mxCell id="cblA4CvJgCcey_ZlcbRY-100" value="Nome" style="text;strokeColor=none;fillColor=none;align=left;verticalAlign=middle;spacingLeft=4;spacingRight=4;overflow=hidden;points=[[0,0.5],[1,0.5]];portConstraint=eastwest;rotatable=0;whiteSpace=wrap;html=1;" parent="cblA4CvJgCcey_ZlcbRY-98" vertex="1">
          <mxGeometry y="60" width="140" height="30" as="geometry" />
        </mxCell>
        <mxCell id="cblA4CvJgCcey_ZlcbRY-101" value="&lt;div&gt;&lt;br&gt;&lt;/div&gt;&lt;div&gt;&lt;br&gt;&lt;/div&gt;&lt;div&gt;&lt;br&gt;&lt;/div&gt;..." style="text;strokeColor=none;fillColor=none;align=left;verticalAlign=middle;spacingLeft=4;spacingRight=4;overflow=hidden;points=[[0,0.5],[1,0.5]];portConstraint=eastwest;rotatable=0;whiteSpace=wrap;html=1;" parent="cblA4CvJgCcey_ZlcbRY-98" vertex="1">
          <mxGeometry y="90" width="140" height="80" as="geometry" />
        </mxCell>
        <mxCell id="cblA4CvJgCcey_ZlcbRY-102" value="Respostas" style="text;strokeColor=none;fillColor=none;align=left;verticalAlign=middle;spacingLeft=4;spacingRight=4;overflow=hidden;points=[[0,0.5],[1,0.5]];portConstraint=eastwest;rotatable=0;whiteSpace=wrap;html=1;" parent="RIBPLgs2tIToHIS9_J1g-27" vertex="1">
          <mxGeometry x="643" y="1025" width="140" height="30" as="geometry" />
        </mxCell>
        <mxCell id="cblA4CvJgCcey_ZlcbRY-103" value="E-mail" style="text;strokeColor=none;fillColor=none;align=left;verticalAlign=middle;spacingLeft=4;spacingRight=4;overflow=hidden;points=[[0,0.5],[1,0.5]];portConstraint=eastwest;rotatable=0;whiteSpace=wrap;html=1;" parent="RIBPLgs2tIToHIS9_J1g-27" vertex="1">
          <mxGeometry x="644" y="1000" width="140" height="30" as="geometry" />
        </mxCell>
        <mxCell id="BTqJfUpLhKWyFMrB6gHA-36" style="edgeStyle=orthogonalEdgeStyle;rounded=0;orthogonalLoop=1;jettySize=auto;html=1;endArrow=none;endFill=0;exitX=0.002;exitY=0.975;exitDx=0;exitDy=0;exitPerimeter=0;startArrow=block;startFill=1;" parent="RIBPLgs2tIToHIS9_J1g-27" source="cblA4CvJgCcey_ZlcbRY-64" edge="1">
          <mxGeometry relative="1" as="geometry">
            <mxPoint x="529" y="402.14076923076914" as="sourcePoint" />
            <mxPoint x="460" y="191" as="targetPoint" />
            <Array as="points">
              <mxPoint x="560" y="429" />
              <mxPoint x="560" y="191" />
            </Array>
          </mxGeometry>
        </mxCell>
        <mxCell id="ZnhlRawrFARA17iCTbUD-2" style="edgeStyle=orthogonalEdgeStyle;rounded=0;orthogonalLoop=1;jettySize=auto;html=1;endArrow=none;endFill=0;startArrow=block;startFill=1;" parent="RIBPLgs2tIToHIS9_J1g-27" edge="1">
          <mxGeometry relative="1" as="geometry">
            <mxPoint x="645" y="830" as="sourcePoint" />
            <mxPoint x="560" y="190" as="targetPoint" />
            <Array as="points">
              <mxPoint x="645" y="830" />
              <mxPoint x="561" y="830" />
            </Array>
          </mxGeometry>
        </mxCell>
        <mxCell id="ZnhlRawrFARA17iCTbUD-7" value="" style="endArrow=none;html=1;rounded=0;" parent="RIBPLgs2tIToHIS9_J1g-27" edge="1">
          <mxGeometry width="50" height="50" relative="1" as="geometry">
            <mxPoint x="470" y="190" as="sourcePoint" />
            <mxPoint x="640" y="190" as="targetPoint" />
          </mxGeometry>
        </mxCell>
        <mxCell id="ZnhlRawrFARA17iCTbUD-19" style="edgeStyle=orthogonalEdgeStyle;rounded=0;orthogonalLoop=1;jettySize=auto;html=1;endArrow=none;endFill=0;startArrow=block;startFill=1;exitX=0.996;exitY=0.297;exitDx=0;exitDy=0;exitPerimeter=0;" parent="RIBPLgs2tIToHIS9_J1g-27" edge="1">
          <mxGeometry relative="1" as="geometry">
            <mxPoint x="195.44000000000005" y="428.9100000000001" as="sourcePoint" />
            <mxPoint x="230" y="190" as="targetPoint" />
            <Array as="points">
              <mxPoint x="240" y="429" />
              <mxPoint x="240" y="190" />
            </Array>
          </mxGeometry>
        </mxCell>
        <mxCell id="ZnhlRawrFARA17iCTbUD-20" style="edgeStyle=orthogonalEdgeStyle;rounded=0;orthogonalLoop=1;jettySize=auto;html=1;endArrow=none;endFill=0;startArrow=block;startFill=1;exitX=1;exitY=0.5;exitDx=0;exitDy=0;" parent="RIBPLgs2tIToHIS9_J1g-27" source="cblA4CvJgCcey_ZlcbRY-37" edge="1">
          <mxGeometry relative="1" as="geometry">
            <mxPoint x="315" y="820" as="sourcePoint" />
            <mxPoint x="210" y="190" as="targetPoint" />
            <Array as="points">
              <mxPoint x="240" y="725" />
              <mxPoint x="240" y="190" />
            </Array>
          </mxGeometry>
        </mxCell>
        <mxCell id="ZnhlRawrFARA17iCTbUD-23" style="edgeStyle=orthogonalEdgeStyle;rounded=0;orthogonalLoop=1;jettySize=auto;html=1;endArrow=none;endFill=0;startArrow=block;startFill=1;exitX=1.01;exitY=0.206;exitDx=0;exitDy=0;exitPerimeter=0;" parent="RIBPLgs2tIToHIS9_J1g-27" source="cblA4CvJgCcey_ZlcbRY-43" edge="1">
          <mxGeometry relative="1" as="geometry">
            <mxPoint x="210" y="900" as="sourcePoint" />
            <mxPoint x="240" y="340" as="targetPoint" />
            <Array as="points">
              <mxPoint x="240" y="900" />
            </Array>
          </mxGeometry>
        </mxCell>
        <mxCell id="ZnhlRawrFARA17iCTbUD-24" style="edgeStyle=orthogonalEdgeStyle;rounded=0;orthogonalLoop=1;jettySize=auto;html=1;endArrow=block;endFill=1;startArrow=block;startFill=1;" parent="RIBPLgs2tIToHIS9_J1g-27" edge="1">
          <mxGeometry relative="1" as="geometry">
            <mxPoint x="1030" y="193" as="sourcePoint" />
            <mxPoint x="800" y="193" as="targetPoint" />
            <Array as="points">
              <mxPoint x="810" y="193" />
            </Array>
          </mxGeometry>
        </mxCell>
        <mxCell id="_jxb3sPJjCQbhh3EpKmT-75" style="edgeStyle=orthogonalEdgeStyle;rounded=0;orthogonalLoop=1;jettySize=auto;html=1;endArrow=none;endFill=0;exitX=0.993;exitY=0.087;exitDx=0;exitDy=0;startArrow=block;startFill=1;exitPerimeter=0;" edge="1" parent="RIBPLgs2tIToHIS9_J1g-27" source="cblA4CvJgCcey_ZlcbRY-67">
          <mxGeometry relative="1" as="geometry">
            <mxPoint x="984" y="432" as="sourcePoint" />
            <mxPoint x="800" y="194" as="targetPoint" />
            <Array as="points">
              <mxPoint x="784" y="433" />
              <mxPoint x="900" y="433" />
              <mxPoint x="900" y="194" />
            </Array>
          </mxGeometry>
        </mxCell>
        <mxCell id="_jxb3sPJjCQbhh3EpKmT-76" style="edgeStyle=orthogonalEdgeStyle;rounded=0;orthogonalLoop=1;jettySize=auto;html=1;endArrow=none;endFill=0;startArrow=block;startFill=1;exitX=1.016;exitY=0.653;exitDx=0;exitDy=0;exitPerimeter=0;" edge="1" parent="RIBPLgs2tIToHIS9_J1g-27" source="cblA4CvJgCcey_ZlcbRY-73">
          <mxGeometry relative="1" as="geometry">
            <mxPoint x="985" y="833" as="sourcePoint" />
            <mxPoint x="900" y="193" as="targetPoint" />
            <Array as="points">
              <mxPoint x="900" y="640" />
            </Array>
          </mxGeometry>
        </mxCell>
        <mxCell id="_jxb3sPJjCQbhh3EpKmT-77" style="edgeStyle=orthogonalEdgeStyle;rounded=0;orthogonalLoop=1;jettySize=auto;html=1;startArrow=block;startFill=1;" edge="1" parent="RIBPLgs2tIToHIS9_J1g-27">
          <mxGeometry relative="1" as="geometry">
            <mxPoint x="1030" y="193" as="sourcePoint" />
            <mxPoint x="800" y="193" as="targetPoint" />
            <Array as="points">
              <mxPoint x="920" y="193" />
              <mxPoint x="920" y="193" />
            </Array>
          </mxGeometry>
        </mxCell>
        <mxCell id="_jxb3sPJjCQbhh3EpKmT-78" style="edgeStyle=orthogonalEdgeStyle;rounded=0;orthogonalLoop=1;jettySize=auto;html=1;endArrow=none;endFill=0;startArrow=block;startFill=1;" edge="1" parent="RIBPLgs2tIToHIS9_J1g-27">
          <mxGeometry relative="1" as="geometry">
            <mxPoint x="800" y="1000" as="sourcePoint" />
            <mxPoint x="900" y="370" as="targetPoint" />
            <Array as="points">
              <mxPoint x="900" y="1000" />
            </Array>
          </mxGeometry>
        </mxCell>
        <mxCell id="_jxb3sPJjCQbhh3EpKmT-80" style="edgeStyle=orthogonalEdgeStyle;rounded=0;orthogonalLoop=1;jettySize=auto;html=1;endArrow=none;endFill=0;exitX=0.008;exitY=0.658;exitDx=0;exitDy=0;startArrow=block;startFill=1;exitPerimeter=0;" edge="1" parent="RIBPLgs2tIToHIS9_J1g-27" source="cblA4CvJgCcey_ZlcbRY-70">
          <mxGeometry relative="1" as="geometry">
            <mxPoint x="645" y="428" as="sourcePoint" />
            <mxPoint x="461" y="190" as="targetPoint" />
            <Array as="points">
              <mxPoint x="561" y="610" />
              <mxPoint x="561" y="190" />
            </Array>
          </mxGeometry>
        </mxCell>
        <mxCell id="RIBPLgs2tIToHIS9_J1g-49" style="edgeStyle=orthogonalEdgeStyle;rounded=0;orthogonalLoop=1;jettySize=auto;html=1;entryX=0;entryY=0.5;entryDx=0;entryDy=0;dashed=1;" parent="1" source="RIBPLgs2tIToHIS9_J1g-48" target="RIBPLgs2tIToHIS9_J1g-24" edge="1">
          <mxGeometry relative="1" as="geometry" />
        </mxCell>
        <mxCell id="RIBPLgs2tIToHIS9_J1g-48" value="" style="shape=image;html=1;verticalAlign=top;verticalLabelPosition=bottom;labelBackgroundColor=#ffffff;imageAspect=0;aspect=fixed;image=https://cdn2.iconfinder.com/data/icons/social-media-and-payment/64/-36-128.png" parent="1" vertex="1">
          <mxGeometry x="-160" y="306" width="88" height="88" as="geometry" />
        </mxCell>
        <mxCell id="RIBPLgs2tIToHIS9_J1g-50" style="edgeStyle=orthogonalEdgeStyle;rounded=0;orthogonalLoop=1;jettySize=auto;html=1;entryX=1;entryY=0.5;entryDx=0;entryDy=0;dashed=1;dashPattern=1 2;" parent="1" source="RIBPLgs2tIToHIS9_J1g-24" target="RIBPLgs2tIToHIS9_J1g-48" edge="1">
          <mxGeometry relative="1" as="geometry" />
        </mxCell>
        <mxCell id="RIBPLgs2tIToHIS9_J1g-51" value="Cliente" style="swimlane;horizontal=0;whiteSpace=wrap;html=1;" parent="1" vertex="1">
          <mxGeometry x="-210" y="250" width="200" height="200" as="geometry" />
        </mxCell>
        <mxCell id="cblA4CvJgCcey_ZlcbRY-12" value="Formulário &quot;Já fui dono de pet&quot;" style="swimlane;fontStyle=0;childLayout=stackLayout;horizontal=1;startSize=30;horizontalStack=0;resizeParent=1;resizeParentMax=0;resizeLast=0;collapsible=1;marginBottom=0;whiteSpace=wrap;html=1;" parent="1" vertex="1">
          <mxGeometry x="96" y="410" width="140" height="140" as="geometry" />
        </mxCell>
        <mxCell id="cblA4CvJgCcey_ZlcbRY-13" value="Texto (Perguntas)" style="text;strokeColor=none;fillColor=none;align=left;verticalAlign=middle;spacingLeft=4;spacingRight=4;overflow=hidden;points=[[0,0.5],[1,0.5]];portConstraint=eastwest;rotatable=0;whiteSpace=wrap;html=1;" parent="cblA4CvJgCcey_ZlcbRY-12" vertex="1">
          <mxGeometry y="30" width="140" height="30" as="geometry" />
        </mxCell>
        <mxCell id="cblA4CvJgCcey_ZlcbRY-14" value="Caixa para Resposta" style="text;strokeColor=none;fillColor=none;align=left;verticalAlign=middle;spacingLeft=4;spacingRight=4;overflow=hidden;points=[[0,0.5],[1,0.5]];portConstraint=eastwest;rotatable=0;whiteSpace=wrap;html=1;" parent="cblA4CvJgCcey_ZlcbRY-12" vertex="1">
          <mxGeometry y="60" width="140" height="30" as="geometry" />
        </mxCell>
        <mxCell id="cblA4CvJgCcey_ZlcbRY-15" value="Botão (avançar ou voltar pergunta)&amp;nbsp;" style="text;strokeColor=none;fillColor=none;align=left;verticalAlign=middle;spacingLeft=4;spacingRight=4;overflow=hidden;points=[[0,0.5],[1,0.5]];portConstraint=eastwest;rotatable=0;whiteSpace=wrap;html=1;" parent="cblA4CvJgCcey_ZlcbRY-12" vertex="1">
          <mxGeometry y="90" width="140" height="50" as="geometry" />
        </mxCell>
        <mxCell id="cblA4CvJgCcey_ZlcbRY-17" value="&lt;font color=&quot;#ffffff&quot;&gt;Form&lt;/font&gt;" style="text;strokeColor=none;fillColor=none;align=left;verticalAlign=middle;spacingLeft=4;spacingRight=4;overflow=hidden;points=[[0,0.5],[1,0.5]];portConstraint=eastwest;rotatable=0;whiteSpace=wrap;html=1;" parent="cblA4CvJgCcey_ZlcbRY-12" vertex="1">
          <mxGeometry y="140" width="140" as="geometry" />
        </mxCell>
        <mxCell id="cblA4CvJgCcey_ZlcbRY-24" value="Formulário &quot;Sou dono de pet&quot;" style="swimlane;fontStyle=0;childLayout=stackLayout;horizontal=1;startSize=30;horizontalStack=0;resizeParent=1;resizeParentMax=0;resizeLast=0;collapsible=1;marginBottom=0;whiteSpace=wrap;html=1;" parent="1" vertex="1">
          <mxGeometry x="96" y="560" width="140" height="140" as="geometry" />
        </mxCell>
        <mxCell id="cblA4CvJgCcey_ZlcbRY-25" value="Texto (Perguntas)" style="text;strokeColor=none;fillColor=none;align=left;verticalAlign=middle;spacingLeft=4;spacingRight=4;overflow=hidden;points=[[0,0.5],[1,0.5]];portConstraint=eastwest;rotatable=0;whiteSpace=wrap;html=1;" parent="cblA4CvJgCcey_ZlcbRY-24" vertex="1">
          <mxGeometry y="30" width="140" height="30" as="geometry" />
        </mxCell>
        <mxCell id="cblA4CvJgCcey_ZlcbRY-26" value="Caixa para Resposta" style="text;strokeColor=none;fillColor=none;align=left;verticalAlign=middle;spacingLeft=4;spacingRight=4;overflow=hidden;points=[[0,0.5],[1,0.5]];portConstraint=eastwest;rotatable=0;whiteSpace=wrap;html=1;" parent="cblA4CvJgCcey_ZlcbRY-24" vertex="1">
          <mxGeometry y="60" width="140" height="30" as="geometry" />
        </mxCell>
        <mxCell id="cblA4CvJgCcey_ZlcbRY-27" value="Botão (avançar ou voltar pergunta)&amp;nbsp;" style="text;strokeColor=none;fillColor=none;align=left;verticalAlign=middle;spacingLeft=4;spacingRight=4;overflow=hidden;points=[[0,0.5],[1,0.5]];portConstraint=eastwest;rotatable=0;whiteSpace=wrap;html=1;" parent="cblA4CvJgCcey_ZlcbRY-24" vertex="1">
          <mxGeometry y="90" width="140" height="50" as="geometry" />
        </mxCell>
        <mxCell id="cblA4CvJgCcey_ZlcbRY-28" value="&lt;font color=&quot;#ffffff&quot;&gt;Form&lt;/font&gt;" style="text;strokeColor=none;fillColor=none;align=left;verticalAlign=middle;spacingLeft=4;spacingRight=4;overflow=hidden;points=[[0,0.5],[1,0.5]];portConstraint=eastwest;rotatable=0;whiteSpace=wrap;html=1;" parent="cblA4CvJgCcey_ZlcbRY-24" vertex="1">
          <mxGeometry y="140" width="140" as="geometry" />
        </mxCell>
        <mxCell id="cblA4CvJgCcey_ZlcbRY-35" value="Formulário &quot;Serei dono de pet&quot;" style="swimlane;fontStyle=0;childLayout=stackLayout;horizontal=1;startSize=30;horizontalStack=0;resizeParent=1;resizeParentMax=0;resizeLast=0;collapsible=1;marginBottom=0;whiteSpace=wrap;html=1;" parent="1" vertex="1">
          <mxGeometry x="96" y="710" width="140" height="140" as="geometry" />
        </mxCell>
        <mxCell id="cblA4CvJgCcey_ZlcbRY-36" value="Texto (Perguntas)" style="text;strokeColor=none;fillColor=none;align=left;verticalAlign=middle;spacingLeft=4;spacingRight=4;overflow=hidden;points=[[0,0.5],[1,0.5]];portConstraint=eastwest;rotatable=0;whiteSpace=wrap;html=1;" parent="cblA4CvJgCcey_ZlcbRY-35" vertex="1">
          <mxGeometry y="30" width="140" height="30" as="geometry" />
        </mxCell>
        <mxCell id="cblA4CvJgCcey_ZlcbRY-37" value="Caixa para Resposta" style="text;strokeColor=none;fillColor=none;align=left;verticalAlign=middle;spacingLeft=4;spacingRight=4;overflow=hidden;points=[[0,0.5],[1,0.5]];portConstraint=eastwest;rotatable=0;whiteSpace=wrap;html=1;" parent="cblA4CvJgCcey_ZlcbRY-35" vertex="1">
          <mxGeometry y="60" width="140" height="30" as="geometry" />
        </mxCell>
        <mxCell id="cblA4CvJgCcey_ZlcbRY-38" value="Botão (avançar ou voltar pergunta)&amp;nbsp;" style="text;strokeColor=none;fillColor=none;align=left;verticalAlign=middle;spacingLeft=4;spacingRight=4;overflow=hidden;points=[[0,0.5],[1,0.5]];portConstraint=eastwest;rotatable=0;whiteSpace=wrap;html=1;" parent="cblA4CvJgCcey_ZlcbRY-35" vertex="1">
          <mxGeometry y="90" width="140" height="50" as="geometry" />
        </mxCell>
        <mxCell id="cblA4CvJgCcey_ZlcbRY-39" value="&lt;font color=&quot;#ffffff&quot;&gt;Form&lt;/font&gt;" style="text;strokeColor=none;fillColor=none;align=left;verticalAlign=middle;spacingLeft=4;spacingRight=4;overflow=hidden;points=[[0,0.5],[1,0.5]];portConstraint=eastwest;rotatable=0;whiteSpace=wrap;html=1;" parent="cblA4CvJgCcey_ZlcbRY-35" vertex="1">
          <mxGeometry y="140" width="140" as="geometry" />
        </mxCell>
        <mxCell id="cblA4CvJgCcey_ZlcbRY-40" value="Formulário &quot;Nunca tive e não pretendo ter pets&quot;" style="swimlane;fontStyle=0;childLayout=stackLayout;horizontal=1;startSize=30;horizontalStack=0;resizeParent=1;resizeParentMax=0;resizeLast=0;collapsible=1;marginBottom=0;whiteSpace=wrap;html=1;" parent="1" vertex="1">
          <mxGeometry x="96" y="860" width="140" height="140" as="geometry" />
        </mxCell>
        <mxCell id="cblA4CvJgCcey_ZlcbRY-41" value="Texto (Perguntas)" style="text;strokeColor=none;fillColor=none;align=left;verticalAlign=middle;spacingLeft=4;spacingRight=4;overflow=hidden;points=[[0,0.5],[1,0.5]];portConstraint=eastwest;rotatable=0;whiteSpace=wrap;html=1;" parent="cblA4CvJgCcey_ZlcbRY-40" vertex="1">
          <mxGeometry y="30" width="140" height="30" as="geometry" />
        </mxCell>
        <mxCell id="cblA4CvJgCcey_ZlcbRY-42" value="Caixa para Resposta" style="text;strokeColor=none;fillColor=none;align=left;verticalAlign=middle;spacingLeft=4;spacingRight=4;overflow=hidden;points=[[0,0.5],[1,0.5]];portConstraint=eastwest;rotatable=0;whiteSpace=wrap;html=1;" parent="cblA4CvJgCcey_ZlcbRY-40" vertex="1">
          <mxGeometry y="60" width="140" height="30" as="geometry" />
        </mxCell>
        <mxCell id="cblA4CvJgCcey_ZlcbRY-43" value="Botão (avançar ou voltar pergunta)&amp;nbsp;" style="text;strokeColor=none;fillColor=none;align=left;verticalAlign=middle;spacingLeft=4;spacingRight=4;overflow=hidden;points=[[0,0.5],[1,0.5]];portConstraint=eastwest;rotatable=0;whiteSpace=wrap;html=1;" parent="cblA4CvJgCcey_ZlcbRY-40" vertex="1">
          <mxGeometry y="90" width="140" height="50" as="geometry" />
        </mxCell>
        <mxCell id="cblA4CvJgCcey_ZlcbRY-44" value="&lt;font color=&quot;#ffffff&quot;&gt;Form&lt;/font&gt;" style="text;strokeColor=none;fillColor=none;align=left;verticalAlign=middle;spacingLeft=4;spacingRight=4;overflow=hidden;points=[[0,0.5],[1,0.5]];portConstraint=eastwest;rotatable=0;whiteSpace=wrap;html=1;" parent="cblA4CvJgCcey_ZlcbRY-40" vertex="1">
          <mxGeometry y="140" width="140" as="geometry" />
        </mxCell>
        <mxCell id="cblA4CvJgCcey_ZlcbRY-46" value="E-mail" style="text;strokeColor=none;fillColor=none;align=left;verticalAlign=middle;spacingLeft=4;spacingRight=4;overflow=hidden;points=[[0,0.5],[1,0.5]];portConstraint=eastwest;rotatable=0;whiteSpace=wrap;html=1;" parent="1" vertex="1">
          <mxGeometry x="683" y="290" width="140" height="28" as="geometry" />
        </mxCell>
        <mxCell id="cblA4CvJgCcey_ZlcbRY-62" value="Formulário &quot;Já fui dono de pet&quot;" style="swimlane;fontStyle=0;childLayout=stackLayout;horizontal=1;startSize=30;horizontalStack=0;resizeParent=1;resizeParentMax=0;resizeLast=0;collapsible=1;marginBottom=0;whiteSpace=wrap;html=1;" parent="1" vertex="1">
          <mxGeometry x="684" y="400" width="140" height="170" as="geometry" />
        </mxCell>
        <mxCell id="cblA4CvJgCcey_ZlcbRY-63" value="Id" style="text;strokeColor=none;fillColor=none;align=left;verticalAlign=middle;spacingLeft=4;spacingRight=4;overflow=hidden;points=[[0,0.5],[1,0.5]];portConstraint=eastwest;rotatable=0;whiteSpace=wrap;html=1;" parent="cblA4CvJgCcey_ZlcbRY-62" vertex="1">
          <mxGeometry y="30" width="140" height="30" as="geometry" />
        </mxCell>
        <mxCell id="cblA4CvJgCcey_ZlcbRY-64" value="Nome" style="text;strokeColor=none;fillColor=none;align=left;verticalAlign=middle;spacingLeft=4;spacingRight=4;overflow=hidden;points=[[0,0.5],[1,0.5]];portConstraint=eastwest;rotatable=0;whiteSpace=wrap;html=1;" parent="cblA4CvJgCcey_ZlcbRY-62" vertex="1">
          <mxGeometry y="60" width="140" height="30" as="geometry" />
        </mxCell>
        <mxCell id="cblA4CvJgCcey_ZlcbRY-65" value="&lt;div&gt;&lt;br&gt;&lt;/div&gt;&lt;div&gt;&lt;br&gt;&lt;/div&gt;&lt;div&gt;&lt;br&gt;&lt;/div&gt;..." style="text;strokeColor=none;fillColor=none;align=left;verticalAlign=middle;spacingLeft=4;spacingRight=4;overflow=hidden;points=[[0,0.5],[1,0.5]];portConstraint=eastwest;rotatable=0;whiteSpace=wrap;html=1;" parent="cblA4CvJgCcey_ZlcbRY-62" vertex="1">
          <mxGeometry y="90" width="140" height="80" as="geometry" />
        </mxCell>
        <mxCell id="cblA4CvJgCcey_ZlcbRY-66" value="Respostas" style="text;strokeColor=none;fillColor=none;align=left;verticalAlign=middle;spacingLeft=4;spacingRight=4;overflow=hidden;points=[[0,0.5],[1,0.5]];portConstraint=eastwest;rotatable=0;whiteSpace=wrap;html=1;" parent="1" vertex="1">
          <mxGeometry x="683" y="515" width="140" height="30" as="geometry" />
        </mxCell>
        <mxCell id="cblA4CvJgCcey_ZlcbRY-67" value="E-mail" style="text;strokeColor=none;fillColor=none;align=left;verticalAlign=middle;spacingLeft=4;spacingRight=4;overflow=hidden;points=[[0,0.5],[1,0.5]];portConstraint=eastwest;rotatable=0;whiteSpace=wrap;html=1;" parent="1" vertex="1">
          <mxGeometry x="684" y="490" width="140" height="30" as="geometry" />
        </mxCell>
        <mxCell id="L16do7hsX52Q1fsmFMhP-1" style="edgeStyle=orthogonalEdgeStyle;rounded=0;orthogonalLoop=1;jettySize=auto;html=1;startArrow=block;startFill=1;" parent="1" edge="1">
          <mxGeometry relative="1" as="geometry">
            <mxPoint x="682" y="251" as="sourcePoint" />
            <mxPoint x="500" y="251" as="targetPoint" />
            <Array as="points">
              <mxPoint x="682" y="251" />
            </Array>
          </mxGeometry>
        </mxCell>
        <mxCell id="ZnhlRawrFARA17iCTbUD-5" style="edgeStyle=orthogonalEdgeStyle;rounded=0;orthogonalLoop=1;jettySize=auto;html=1;endArrow=none;endFill=0;startArrow=block;startFill=1;" parent="1" edge="1">
          <mxGeometry relative="1" as="geometry">
            <mxPoint x="684" y="1057" as="sourcePoint" />
            <mxPoint x="600" y="427" as="targetPoint" />
            <Array as="points">
              <mxPoint x="684" y="1057" />
              <mxPoint x="600" y="1057" />
            </Array>
          </mxGeometry>
        </mxCell>
        <mxCell id="_jxb3sPJjCQbhh3EpKmT-7" value="Formulário &quot;Já fui dono de pet&quot;" style="swimlane;fontStyle=0;childLayout=stackLayout;horizontal=1;startSize=30;horizontalStack=0;resizeParent=1;resizeParentMax=0;resizeLast=0;collapsible=1;marginBottom=0;whiteSpace=wrap;html=1;" vertex="1" parent="1">
          <mxGeometry x="345" y="427" width="140" height="90" as="geometry" />
        </mxCell>
        <mxCell id="_jxb3sPJjCQbhh3EpKmT-12" value="Passar" style="text;strokeColor=none;fillColor=none;align=left;verticalAlign=middle;spacingLeft=4;spacingRight=4;overflow=hidden;points=[[0,0.5],[1,0.5]];portConstraint=eastwest;rotatable=0;whiteSpace=wrap;html=1;" vertex="1" parent="_jxb3sPJjCQbhh3EpKmT-7">
          <mxGeometry y="30" width="140" height="30" as="geometry" />
        </mxCell>
        <mxCell id="_jxb3sPJjCQbhh3EpKmT-8" value="Gravar" style="text;strokeColor=none;fillColor=none;align=left;verticalAlign=middle;spacingLeft=4;spacingRight=4;overflow=hidden;points=[[0,0.5],[1,0.5]];portConstraint=eastwest;rotatable=0;whiteSpace=wrap;html=1;" vertex="1" parent="_jxb3sPJjCQbhh3EpKmT-7">
          <mxGeometry y="60" width="140" height="30" as="geometry" />
        </mxCell>
        <mxCell id="_jxb3sPJjCQbhh3EpKmT-11" value="&lt;font color=&quot;#ffffff&quot;&gt;Form&lt;/font&gt;" style="text;strokeColor=none;fillColor=none;align=left;verticalAlign=middle;spacingLeft=4;spacingRight=4;overflow=hidden;points=[[0,0.5],[1,0.5]];portConstraint=eastwest;rotatable=0;whiteSpace=wrap;html=1;" vertex="1" parent="_jxb3sPJjCQbhh3EpKmT-7">
          <mxGeometry y="90" width="140" as="geometry" />
        </mxCell>
        <mxCell id="_jxb3sPJjCQbhh3EpKmT-18" value="Formulário &quot;Sou dono de pet&quot;" style="swimlane;fontStyle=0;childLayout=stackLayout;horizontal=1;startSize=30;horizontalStack=0;resizeParent=1;resizeParentMax=0;resizeLast=0;collapsible=1;marginBottom=0;whiteSpace=wrap;html=1;" vertex="1" parent="1">
          <mxGeometry x="345" y="536" width="140" height="90" as="geometry" />
        </mxCell>
        <mxCell id="_jxb3sPJjCQbhh3EpKmT-19" value="Passar" style="text;strokeColor=none;fillColor=none;align=left;verticalAlign=middle;spacingLeft=4;spacingRight=4;overflow=hidden;points=[[0,0.5],[1,0.5]];portConstraint=eastwest;rotatable=0;whiteSpace=wrap;html=1;" vertex="1" parent="_jxb3sPJjCQbhh3EpKmT-18">
          <mxGeometry y="30" width="140" height="30" as="geometry" />
        </mxCell>
        <mxCell id="_jxb3sPJjCQbhh3EpKmT-20" value="Gravar" style="text;strokeColor=none;fillColor=none;align=left;verticalAlign=middle;spacingLeft=4;spacingRight=4;overflow=hidden;points=[[0,0.5],[1,0.5]];portConstraint=eastwest;rotatable=0;whiteSpace=wrap;html=1;" vertex="1" parent="_jxb3sPJjCQbhh3EpKmT-18">
          <mxGeometry y="60" width="140" height="30" as="geometry" />
        </mxCell>
        <mxCell id="_jxb3sPJjCQbhh3EpKmT-21" value="&lt;font color=&quot;#ffffff&quot;&gt;Form&lt;/font&gt;" style="text;strokeColor=none;fillColor=none;align=left;verticalAlign=middle;spacingLeft=4;spacingRight=4;overflow=hidden;points=[[0,0.5],[1,0.5]];portConstraint=eastwest;rotatable=0;whiteSpace=wrap;html=1;" vertex="1" parent="_jxb3sPJjCQbhh3EpKmT-18">
          <mxGeometry y="90" width="140" as="geometry" />
        </mxCell>
        <mxCell id="_jxb3sPJjCQbhh3EpKmT-44" value="Formulário &quot;Serei dono de pet&quot;" style="swimlane;fontStyle=0;childLayout=stackLayout;horizontal=1;startSize=30;horizontalStack=0;resizeParent=1;resizeParentMax=0;resizeLast=0;collapsible=1;marginBottom=0;whiteSpace=wrap;html=1;" vertex="1" parent="1">
          <mxGeometry x="345" y="647" width="140" height="90" as="geometry" />
        </mxCell>
        <mxCell id="_jxb3sPJjCQbhh3EpKmT-45" value="Passar" style="text;strokeColor=none;fillColor=none;align=left;verticalAlign=middle;spacingLeft=4;spacingRight=4;overflow=hidden;points=[[0,0.5],[1,0.5]];portConstraint=eastwest;rotatable=0;whiteSpace=wrap;html=1;" vertex="1" parent="_jxb3sPJjCQbhh3EpKmT-44">
          <mxGeometry y="30" width="140" height="30" as="geometry" />
        </mxCell>
        <mxCell id="_jxb3sPJjCQbhh3EpKmT-46" value="Gravar" style="text;strokeColor=none;fillColor=none;align=left;verticalAlign=middle;spacingLeft=4;spacingRight=4;overflow=hidden;points=[[0,0.5],[1,0.5]];portConstraint=eastwest;rotatable=0;whiteSpace=wrap;html=1;" vertex="1" parent="_jxb3sPJjCQbhh3EpKmT-44">
          <mxGeometry y="60" width="140" height="30" as="geometry" />
        </mxCell>
        <mxCell id="_jxb3sPJjCQbhh3EpKmT-47" value="&lt;font color=&quot;#ffffff&quot;&gt;Form&lt;/font&gt;" style="text;strokeColor=none;fillColor=none;align=left;verticalAlign=middle;spacingLeft=4;spacingRight=4;overflow=hidden;points=[[0,0.5],[1,0.5]];portConstraint=eastwest;rotatable=0;whiteSpace=wrap;html=1;" vertex="1" parent="_jxb3sPJjCQbhh3EpKmT-44">
          <mxGeometry y="90" width="140" as="geometry" />
        </mxCell>
        <mxCell id="ZnhlRawrFARA17iCTbUD-21" style="edgeStyle=orthogonalEdgeStyle;rounded=0;orthogonalLoop=1;jettySize=auto;html=1;startArrow=block;startFill=1;exitX=0;exitY=0.5;exitDx=0;exitDy=0;entryX=0.996;entryY=0.377;entryDx=0;entryDy=0;entryPerimeter=0;" parent="1" edge="1" target="RIBPLgs2tIToHIS9_J1g-42" source="BTqJfUpLhKWyFMrB6gHA-15">
          <mxGeometry relative="1" as="geometry">
            <mxPoint x="330" y="250" as="sourcePoint" />
            <mxPoint x="240" y="250" as="targetPoint" />
            <Array as="points">
              <mxPoint x="330" y="249" />
            </Array>
          </mxGeometry>
        </mxCell>
        <mxCell id="_jxb3sPJjCQbhh3EpKmT-57" value="Formulário &quot;Nunca tive e não pretendo ter pets&quot;" style="swimlane;fontStyle=0;childLayout=stackLayout;horizontal=1;startSize=30;horizontalStack=0;resizeParent=1;resizeParentMax=0;resizeLast=0;collapsible=1;marginBottom=0;whiteSpace=wrap;html=1;" vertex="1" parent="1">
          <mxGeometry x="346" y="760" width="140" height="90" as="geometry" />
        </mxCell>
        <mxCell id="_jxb3sPJjCQbhh3EpKmT-58" value="Passar" style="text;strokeColor=none;fillColor=none;align=left;verticalAlign=middle;spacingLeft=4;spacingRight=4;overflow=hidden;points=[[0,0.5],[1,0.5]];portConstraint=eastwest;rotatable=0;whiteSpace=wrap;html=1;" vertex="1" parent="_jxb3sPJjCQbhh3EpKmT-57">
          <mxGeometry y="30" width="140" height="30" as="geometry" />
        </mxCell>
        <mxCell id="_jxb3sPJjCQbhh3EpKmT-59" value="Gravar" style="text;strokeColor=none;fillColor=none;align=left;verticalAlign=middle;spacingLeft=4;spacingRight=4;overflow=hidden;points=[[0,0.5],[1,0.5]];portConstraint=eastwest;rotatable=0;whiteSpace=wrap;html=1;" vertex="1" parent="_jxb3sPJjCQbhh3EpKmT-57">
          <mxGeometry y="60" width="140" height="30" as="geometry" />
        </mxCell>
        <mxCell id="_jxb3sPJjCQbhh3EpKmT-60" value="&lt;font color=&quot;#ffffff&quot;&gt;Form&lt;/font&gt;" style="text;strokeColor=none;fillColor=none;align=left;verticalAlign=middle;spacingLeft=4;spacingRight=4;overflow=hidden;points=[[0,0.5],[1,0.5]];portConstraint=eastwest;rotatable=0;whiteSpace=wrap;html=1;" vertex="1" parent="_jxb3sPJjCQbhh3EpKmT-57">
          <mxGeometry y="90" width="140" as="geometry" />
        </mxCell>
        <mxCell id="_jxb3sPJjCQbhh3EpKmT-61" value="Role" style="text;strokeColor=none;fillColor=none;align=left;verticalAlign=middle;spacingLeft=4;spacingRight=4;overflow=hidden;points=[[0,0.5],[1,0.5]];portConstraint=eastwest;rotatable=0;whiteSpace=wrap;html=1;" vertex="1" parent="1">
          <mxGeometry x="682" y="328" width="140" height="30" as="geometry" />
        </mxCell>
        <mxCell id="_jxb3sPJjCQbhh3EpKmT-66" value="Formulário &quot;Já fui dono de pet&quot;" style="swimlane;fontStyle=0;childLayout=stackLayout;horizontal=1;startSize=30;horizontalStack=0;resizeParent=1;resizeParentMax=0;resizeLast=0;collapsible=1;marginBottom=0;whiteSpace=wrap;html=1;" vertex="1" parent="1">
          <mxGeometry x="345" y="314" width="140" height="90" as="geometry" />
        </mxCell>
        <mxCell id="_jxb3sPJjCQbhh3EpKmT-67" value="Passar" style="text;strokeColor=none;fillColor=none;align=left;verticalAlign=middle;spacingLeft=4;spacingRight=4;overflow=hidden;points=[[0,0.5],[1,0.5]];portConstraint=eastwest;rotatable=0;whiteSpace=wrap;html=1;" vertex="1" parent="_jxb3sPJjCQbhh3EpKmT-66">
          <mxGeometry y="30" width="140" height="30" as="geometry" />
        </mxCell>
        <mxCell id="_jxb3sPJjCQbhh3EpKmT-68" value="Gravar" style="text;strokeColor=none;fillColor=none;align=left;verticalAlign=middle;spacingLeft=4;spacingRight=4;overflow=hidden;points=[[0,0.5],[1,0.5]];portConstraint=eastwest;rotatable=0;whiteSpace=wrap;html=1;" vertex="1" parent="_jxb3sPJjCQbhh3EpKmT-66">
          <mxGeometry y="60" width="140" height="30" as="geometry" />
        </mxCell>
        <mxCell id="_jxb3sPJjCQbhh3EpKmT-69" value="&lt;font color=&quot;#ffffff&quot;&gt;Form&lt;/font&gt;" style="text;strokeColor=none;fillColor=none;align=left;verticalAlign=middle;spacingLeft=4;spacingRight=4;overflow=hidden;points=[[0,0.5],[1,0.5]];portConstraint=eastwest;rotatable=0;whiteSpace=wrap;html=1;" vertex="1" parent="_jxb3sPJjCQbhh3EpKmT-66">
          <mxGeometry y="90" width="140" as="geometry" />
        </mxCell>
      </root>
    </mxGraphModel>
  </diagram>
</mxfile>
